<?xml version="1.0" encoding="UTF-8" standalone="no"?>
<!-- Created with Inkscape (http://www.inkscape.org/) -->

<svg
   xmlns:dc="http://purl.org/dc/elements/1.1/"
   xmlns:cc="http://creativecommons.org/ns#"
   xmlns:rdf="http://www.w3.org/1999/02/22-rdf-syntax-ns#"
   xmlns:svg="http://www.w3.org/2000/svg"
   xmlns="http://www.w3.org/2000/svg"
   xmlns:sodipodi="http://sodipodi.sourceforge.net/DTD/sodipodi-0.dtd"
   xmlns:inkscape="http://www.inkscape.org/namespaces/inkscape"
   width="77.012085"
   height="43.654747"
   id="svg3189"
   version="1.1"
   inkscape:version="0.48.2 r9819"
   sodipodi:docname="logo.pdf">
  <defs
     id="defs3191" />
  <sodipodi:namedview
     inkscape:document-units="mm"
     pagecolor="#ffffff"
     bordercolor="#666666"
     borderopacity="1.0"
     inkscape:pageopacity="0.0"
     inkscape:pageshadow="2"
     inkscape:zoom="13.790043"
     inkscape:cx="38.506042"
     inkscape:cy="21.827374"
     inkscape:current-layer="layer1"
     id="namedview3193"
     showgrid="false"
     units="mm"
     fit-margin-top="0"
     fit-margin-left="0"
     fit-margin-right="0"
     fit-margin-bottom="0"
     inkscape:window-width="1503"
     inkscape:window-height="980"
     inkscape:window-x="78"
     inkscape:window-y="20"
     inkscape:window-maximized="0" />
  <metadata
     id="metadata3195">
    <rdf:RDF>
      <cc:Work
         rdf:about="">
        <dc:format>image/svg+xml</dc:format>
        <dc:type
           rdf:resource="http://purl.org/dc/dcmitype/StillImage" />
        <dc:title></dc:title>
      </cc:Work>
    </rdf:RDF>
  </metadata>
  <g
     inkscape:label="Layer 1"
     inkscape:groupmode="layer"
     id="layer1"
     transform="translate(-451.49395,-342.26711)">
    <g
       transform="matrix(0.67920382,0,0,0.67812766,119.25966,66.640055)"
       id="g10580-0-1">
      <g
         id="g10174-4-6"
         transform="matrix(0.45986647,0,0,0.45986647,389.49088,262.80226)">
        <path
           sodipodi:nodetypes="scscs"
           inkscape:connector-curvature="0"
           id="path9605-6-3"
           d="m 340,312.375 c -49.59398,0 -93.93333,22.54691 -123.28125,57.96875 C 248.92845,346.78817 292.29919,332.375 340,332.375 c 47.70081,0 91.07155,14.41317 123.28125,37.96875 C 433.93333,334.92191 389.59398,312.375 340,312.375 z"
           style="fill:#000000;fill-opacity:1;stroke:none" />
        <path
           sodipodi:nodetypes="scscs"
           inkscape:connector-curvature="0"
           id="path9605-9-9-6"
           d="m 340,452.36218 c -49.59398,0 -93.93333,-22.54691 -123.28125,-57.96875 32.2097,23.55558 75.58044,37.96875 123.28125,37.96875 47.70081,0 91.07155,-14.41317 123.28125,-37.96875 C 433.93333,429.81527 389.59398,452.36218 340,452.36218 z"
           style="fill:#000000;fill-opacity:1;stroke:none" />
      </g>
      <path
         sodipodi:type="arc"
         style="fill:none;stroke:#000000;stroke-width:40.2804184;stroke-miterlimit:4;stroke-opacity:1;stroke-dasharray:none"
         id="path10172-5-4"
         sodipodi:cx="350"
         sodipodi:cy="382.36218"
         sodipodi:rx="50"
         sodipodi:ry="50"
         d="m 400,382.36218 c 0,27.61424 -22.38576,50 -50,50 -27.61424,0 -50,-22.38576 -50,-50 0,-27.61423 22.38576,-50 50,-50 27.61424,0 50,22.38577 50,50 z"
         transform="matrix(0.42461693,0,0,0.4134103,397.22955,280.56829)" />
    </g>
  </g>
</svg>
