<?xml version="1.0" encoding="UTF-8" standalone="no"?>
<!-- Created with Inkscape (http://www.inkscape.org/) -->

<svg
   xmlns:dc="http://purl.org/dc/elements/1.1/"
   xmlns:cc="http://creativecommons.org/ns#"
   xmlns:rdf="http://www.w3.org/1999/02/22-rdf-syntax-ns#"
   xmlns:svg="http://www.w3.org/2000/svg"
   xmlns="http://www.w3.org/2000/svg"
   xmlns:sodipodi="http://sodipodi.sourceforge.net/DTD/sodipodi-0.dtd"
   xmlns:inkscape="http://www.inkscape.org/namespaces/inkscape"
   width="230"
   height="82.165726"
   id="svg2"
   version="1.1"
   inkscape:version="0.48.2 r9819"
   sodipodi:docname="Showtime.pdf">
  <defs
     id="defs4">
    <inkscape:perspective
       sodipodi:type="inkscape:persp3d"
       inkscape:vp_x="0 : 526.18109 : 1"
       inkscape:vp_y="0 : 1000 : 0"
       inkscape:vp_z="744.09448 : 526.18109 : 1"
       inkscape:persp3d-origin="372.04724 : 350.78739 : 1"
       id="perspective10" />
    <inkscape:perspective
       id="perspective2824"
       inkscape:persp3d-origin="0.5 : 0.33333333 : 1"
       inkscape:vp_z="1 : 0.5 : 1"
       inkscape:vp_y="0 : 1000 : 0"
       inkscape:vp_x="0 : 0.5 : 1"
       sodipodi:type="inkscape:persp3d" />
  </defs>
  <sodipodi:namedview
     id="base"
     pagecolor="#ffffff"
     bordercolor="#666666"
     borderopacity="1.0"
     inkscape:pageopacity="0.0"
     inkscape:pageshadow="2"
     inkscape:zoom="6.273913"
     inkscape:cx="115"
     inkscape:cy="41.082863"
     inkscape:document-units="px"
     inkscape:current-layer="layer1"
     showgrid="false"
     inkscape:window-width="1916"
     inkscape:window-height="1156"
     inkscape:window-x="4"
     inkscape:window-y="0"
     inkscape:window-maximized="1" />
  <metadata
     id="metadata7">
    <rdf:RDF>
      <cc:Work
         rdf:about="">
        <dc:format>image/svg+xml</dc:format>
        <dc:type
           rdf:resource="http://purl.org/dc/dcmitype/StillImage" />
        <dc:title></dc:title>
      </cc:Work>
    </rdf:RDF>
  </metadata>
  <g
     inkscape:label="Ebene 1"
     inkscape:groupmode="layer"
     id="layer1"
     transform="translate(130.73675,-272.49809)">
    <path
       style="fill:#3333b3;fill-opacity:1"
       d="m -93.616496,354.56805 c -9.532004,-1.11757 -17.441834,-4.76452 -24.274354,-11.19206 -1.05962,-0.99682 -1.86591,-1.91057 -1.79176,-2.03056 0.0742,-0.11999 0.4863,-0.21816 0.91586,-0.21816 1.35915,0 4.10945,-1.51652 5.72376,-3.1561 4.38831,-4.45696 5.33974,-11.77602 2.34935,-18.0728 -1.65478,-3.48441 -3.3948,-5.29507 -9.48931,-9.87448 -5.80381,-4.36098 -7.17488,-6.23193 -7.34288,-10.02004 -0.0861,-1.9416 -0.0331,-2.30239 0.47845,-3.25618 0.74064,-1.38093 1.56666,-1.98313 2.9311,-2.13692 2.74378,-0.30927 4.52946,2.26695 4.53699,6.54553 l 0.003,1.63766 4.52444,0 4.52446,0 -0.13747,-2.72943 c -0.17272,-3.4292 -0.71221,-5.86306 -1.81408,-8.18404 -0.9311,-1.96128 -3.11448,-4.04775 -4.15244,-4.60007 -1.03796,-0.55233 -1.39861,-0.71067 -2.29377,-0.96588 l -1.16848,-0.33314 1.16848,-1.19743 c 4.63788,-4.72067 10.21428,-7.94827 16.35879,-10.21715 4.837248,-1.61758 9.242394,-2.23377 14.523672,-2.03158 9.979552,0.38206 19.450049,4.27637 26.233564,10.78736 2.409451,2.31265 2.83195,2.97347 1.9011,2.97347 -1.940098,0 -5.926102,3.39278 -7.838511,6.67194 -6.565158,11.2571 -6.236149,32.72078 0.656398,42.82173 1.74749,2.56092 4.289805,4.77489 6.405056,5.57783 l 1.07213,0.40697 -2.259782,2.12726 c -5.343837,5.03047 -12.372377,8.57665 -20.006229,10.09395 -2.548708,0.50658 -9.434438,0.84233 -11.737417,0.57232 l -7e-6,0 z m -2.183545,-24.96504 0,-11.76688 4.973629,0 4.973629,0 0,11.76688 0,11.76688 4.731012,0 4.731013,0 0,-27.05169 0,-27.05169 -4.731013,0 -4.731012,0 0,10.79641 0,10.79642 -4.973629,0 -4.973629,0 0,-10.79642 0,-10.79641 -4.852319,0 -4.85232,0 0,27.05169 0,27.05169 4.85232,0 4.852319,0 0,-11.76688 z m 60.549402,10.12922 c -0.08099,-0.5004 -1.617339,-11.9913 -3.414107,-25.53534 -1.796769,-13.54404 -3.328117,-24.98035 -3.402996,-25.41403 l -0.136144,-0.7885 4.323243,0 4.323243,0 1.692499,15.52724 c 0.930874,8.53998 1.749313,15.52732 1.818754,15.52742 0.06944,1.1e-4 1.161214,-6.95986 2.426161,-15.46658 l 2.299903,-15.46677 4.306434,-0.0663 c 3.284158,-0.0505 4.306435,0.005 4.306435,0.23245 0,0.56118 4.141822,30.62295 4.231493,30.71262 0.167723,0.16772 0.361068,-1.28593 2.074124,-15.59401 0.9425927,-7.87289 1.7675284,-14.56 1.83319,-14.86023 l 0.1193817,-0.54589 20.8603573,0 20.860357,0 0,26.32384 0,26.32384 -4.731013,0 -4.731012,0 0,-22.32068 0,-22.32067 -4.488397,0 -4.488397,0 0,22.32067 0,22.32068 -4.731012,0 -4.7310131,0 0,-22.32068 0,-22.32067 -4.1244725,0 c -2.7896065,0 -4.1244726,0.0847 -4.1244726,0.26182 0,0.144 -0.8129141,6.44899 -1.8064753,14.01108 -0.9935636,7.56208 -2.2531096,17.24292 -2.7989957,21.51296 -0.5458861,4.27004 -1.0668434,8.52926 -1.1312021,8.82949 -0.3542121,0.0209 -0.134863,0.026 -4.3318927,0.026 -2.854753,0 -4.233016,0.011 -4.230922,0.0164 -0.0074,-0.004 -0.31133,-1.57955 -0.476316,-2.92777 -0.534377,-4.3668 -4.18051,-30.44014 -4.269193,-30.52883 -0.194178,-0.19418 -0.6685,2.97442 -3.389645,22.6438 -0.738419,5.33756 -1.399057,10.51351 -1.468084,10.81375 -0.01575,-0.002 -0.172641,-0.0173 -4.22403,-0.0173 l -4.098525,0 -0.147258,-0.90981 z m 73.374648,-25.41403 0,-26.32384 6.379805,0 6.379802,0 2.134495,13.40453 c 1.17397,7.3725 2.178849,13.45003 2.233064,13.50563 0.05421,0.0556 0.135315,0.0556 0.18022,0 0.04491,-0.0556 1.036733,-5.88748 2.204056,-12.95974 1.167322,-7.07226 2.179601,-13.1043 2.249506,-13.40453 l 0.1271,-0.54589 6.160406,0 6.160407,0 0,26.32384 0,26.32384 -4.24578,0 -4.245781,0 0,-19.32841 c 0,-10.63063 -0.05886,-19.26955 -0.130799,-19.19761 -0.07194,0.0719 -1.544157,8.52407 -3.271597,18.78252 -1.727439,10.25845 -3.177477,19.46059 -3.248784,19.76083 -0.514101,-0.0187 -0.257899,-0.0173 -2.677809,-0.0173 -2.199077,0 -2.368634,-0.0117 -2.64559,-0.0347 -0.0655,-0.23351 -1.509287,-9.22114 -3.208415,-19.49593 -1.699127,-10.27478 -3.181373,-18.78515 -3.293881,-18.91192 -0.112509,-0.12676 -0.20456,8.47094 -0.20456,19.10602 l 0,19.3365 -3.517932,0 -3.517933,0 0,-26.32384 0,-10e-6 z m 39.061182,0 0,-26.32384 10.796413,0 10.796414,0 0,4.00316 0,4.00317 -6.065401,0 -6.065401,0 0,6.79325 0,6.79325 4.488397,0 4.488396,0 0,4.24578 0,4.24578 -4.488396,0 -4.488397,0 0,7.27848 0,7.27848 6.308017,0 6.308017,0 0,4.00316 0,4.00317 -11.03903,0 -11.039029,0 0,-26.32384 z m -201.631721,17.83775 c -2.02204,-1.06896 -4.04567,-4.43573 -5.05809,-8.4153 -0.54663,-2.14867 -1.23213,-7.42871 -1.23213,-9.49046 l 0,-1.28407 1.452,1.20837 c 0.7986,0.6646 2.57273,1.99941 3.94251,2.96623 5.32948,3.76169 7.04951,6.11218 7.0779,9.6722 0.0214,2.68541 -0.8259,4.47066 -2.53592,5.34305 -1.17105,0.59742 -2.51615,0.59741 -3.64627,-2e-5 z m 67.326584,-0.4647 c -5.615385,-2.55045 -7.832061,-20.75138 -3.79386,-31.15104 0.841349,-2.16674 2.164409,-4.06437 3.340565,-4.79127 1.033273,-0.6386 2.611204,-0.69889 3.690064,-0.14098 2.996243,1.54941 5.3944,9.63107 5.392578,18.17269 -0.0019,9.01454 -2.502574,16.53569 -5.99627,18.03482 -1.0184,0.437 -1.441364,0.41704 -2.633077,-0.12422 z"
       id="path2832"
       sodipodi:nodetypes="cssssssssscccccszzcccssssscccsccccccccccccccccccccccccccccscccccscccssscccccccccccccccccccssscscssscccccccccssscccccccccsscscsscccccccccccccccccccccccccccccccccccssscccsssscc" />
    <path
       style="fill:#000000"
       d="m -54.508342,1332.0967 c -39.28843,-4.6063 -71.890668,-19.638 -100.052548,-46.1307 -4.36749,-4.1086 -7.69081,-7.8749 -7.38515,-8.3694 0.30565,-0.4946 2.00437,-0.8992 3.77493,-0.8992 5.60205,0 16.93806,-6.2507 23.59185,-13.0086 18.08746,-18.3705 22.009,-48.5378 9.68338,-74.4914 -6.82055,-14.3619 -13.99249,-21.8249 -39.11246,-40.7001 -23.92177,-17.9748 -29.57296,-25.6864 -30.26544,-41.2999 -0.35493,-8.0028 -0.13641,-9.4899 1.97207,-13.4212 3.05273,-5.6918 6.45734,-8.1739 12.08122,-8.8078 11.30913,-1.2747 18.66927,9.3438 18.70028,26.979 l 0.0119,6.75 18.6486,0 18.64861,0 -0.56661,-11.25 c -0.71188,-14.1343 -2.93552,-24.166 -7.47715,-33.7325 -3.83776,-8.0839 -11.58977,-16.6716 -17.11529,-18.9603 -1.72599,-0.7149 -3.13816,-1.6953 -3.13816,-2.1786 0,-0.4832 -0.3375,-0.7776 -0.75,-0.654 -0.4125,0.1235 -2.91727,-0.3933 -5.56616,-1.1485 l -4.81615,-1.3731 4.81615,-4.9355 c 10.48158,-10.7413 35.38638,-29.4602 37.4768,-28.1683 0.46165,0.2854 0.83936,0.054 0.83936,-0.5129 0,-1.5185 17.15236,-9.4324 29.110498,-13.4312 19.93789,-6.66727 38.09475,-9.20706 59.8628,-8.37367 41.1331104,1.57477 80.16803,17.62607 108.12791,44.46267 9.93113,9.5321 11.67256,12.2559 7.83584,12.2559 -7.99658,0 -24.42585,13.9841 -32.3083,27.5 -27.05987,46.3988 -25.70378,134.8665 2.7055,176.5 7.2027,10.5554 17.68146,19.6808 26.39997,22.9903 l 4.41904,1.6775 -9.31423,8.768 c -22.0259,20.7342 -50.99571,35.3507 -82.4604596,41.6046 -10.5051104,2.088 -38.8862904,3.4718 -48.3785704,2.3589 z m -9,-102.8993 0,-48.5 20.5,0 20.5,0 0,48.5 0,48.5 19.5000004,0 19.4999996,0 0,-111.5 0,-111.5 -19.4999996,0 -19.5000004,0 0,44.5 0,44.5 -20.5,0 -20.5,0 0,-44.5 0,-44.5 -20,0 -19.999998,0 0,111.5 0,111.5 19.999998,0 20,0 0,-48.5 z m 823.208532,44.8322 c -11.68458,-5.7588 -11.18997,-22.9215 0.79881,-27.7185 5.25925,-2.1043 7.4903,-2.0353 12.49284,0.3864 10.76728,5.2123 11.36102,20.4807 1.03184,26.534 -4.85268,2.8438 -9.63235,3.1102 -14.32349,0.7981 z m 16.45623,-4.6635 c 2.91603,-3.1819 3.33524,-4.3156 3.33524,-9.0192 0,-3.9414 -0.55834,-6.0896 -2.0883,-8.0347 -6.73113,-8.5572 -19.27685,-6.9035 -23.54058,3.103 -1.82625,4.2861 -1.72822,7.1495 0.37888,11.0668 2.84682,5.2927 6.83615,7.3906 13.16476,6.9233 4.70689,-0.3475 5.85077,-0.8756 8.75,-4.0392 z m -15.66476,-9.1687 0,-8.5 4.06574,0 c 2.23616,0 4.93616,0.4658 6,1.0351 2.31309,1.238 2.51916,4.6611 0.42021,6.9804 -1.35223,1.4942 -1.3508,2.0637 0.0134,5.3287 0.84011,2.0107 1.10633,3.6558 0.5916,3.6558 -0.51473,0 -1.45566,-1.575 -2.09097,-3.5 -0.96965,-2.9381 -1.6243,-3.5 -4.07755,-3.5 -2.67328,0 -2.92245,0.2984 -2.92245,3.5 0,1.925 -0.45,3.5 -1,3.5 -0.58824,0 -1,-3.5 -1,-8.5 z m 9.96283,-2.4306 c 1.38094,-2.5803 -1.09093,-5.0694 -5.03426,-5.0694 -2.68027,0 -2.92857,0.2967 -2.92857,3.5 0,3.3265 0.17169,3.5 3.46482,3.5 2.39981,0 3.78239,-0.5934 4.49801,-1.9306 z m -584.39399,13.1806 c -0.33382,-2.0625 -6.66625,-49.425 -14.07206,-105.25 -7.40581,-55.825 -13.71763,-102.9625 -14.02626,-104.75 l -0.56115,-3.25 17.81928,0 17.81928,0 6.97604,63.9992 c 3.83682,35.1996 7.21021,63.9996 7.49643,64 0.28622,4e-4 4.78622,-28.6867 10,-63.7492 l 9.4796,-63.75 17.75,-0.2731 c 13.53644,-0.2083 17.75,0.019 17.75,0.9581 0,2.313 17.07151,126.2198 17.44111,126.5894 0.69131,0.6913 1.48823,-5.3003 8.549,-64.2744 3.88512,-32.45 7.28529,-60.0125 7.55593,-61.25 l 0.49206,-2.25 85.98095,0 85.98095,0 0,108.5 0,108.5 -19.5,0 -19.5,0 0,-92 0,-92 -18.5,0 -18.5,0 0,92 0,92 -19.5,0 -19.5,0 0,-92 0,-92 -17,0 c -11.49803,0 -17,0.3492 -17,1.0791 0,0.5936 -3.35062,26.5811 -7.44582,57.75 -4.09521,31.169 -9.28673,71.0709 -11.53673,88.6709 -2.25,17.6 -4.30796,33.0125 -4.57323,34.25 -0.47783,2.229 -0.64516,2.25 -17.94422,2.25 -20.07131,0 -17.75848,1.4304 -19.40201,-12 -2.20256,-17.9988 -17.23097,-125.4663 -17.5965,-125.8319 -0.80035,-0.8003 -2.75538,12.2598 -13.97123,93.3319 -3.04357,22 -5.76655,41.0125 -6.05106,42.25 -0.51136,2.2241 -0.71158,2.25 -17.41035,2.25 l -16.89305,0 -0.60696,-3.75 z m 302.43116,-104.75 0,-108.5 26.29589,0 26.29588,0 8.79783,55.25 c 4.8388,30.3875 8.98065,55.4375 9.20411,55.6666 0.22346,0.2292 0.55773,0.2292 0.74282,0 0.1851,-0.2291 4.27314,-24.2666 9.08454,-53.4166 4.8114,-29.15 8.98375,-54.0125 9.27188,-55.25 l 0.52387,-2.25 25.39159,0 25.39159,0 0,108.5 0,108.5 -17.5,0 -17.5,0 0,-79.6667 c 0,-43.8167 -0.2426,-79.4241 -0.53912,-79.1275 -0.29651,0.2965 -6.36461,35.134 -13.48467,77.4166 -7.12005,42.2827 -13.18602,77.8901 -13.47993,79.1276 -0.51184,2.155 -0.9737,2.25 -10.94794,2.25 -9.06402,0 -10.47718,-0.2268 -10.90443,-1.75 -0.26998,-0.9625 -6.22089,-36.4 -13.22425,-78.75 -7.00336,-42.35 -13.11279,-77.4275 -13.57652,-77.95 -0.46373,-0.5225 -0.84314,34.915 -0.84314,78.75 l 0,79.7 -14.5,0 -14.5,0 0,-108.5 z m 161,0 0,-108.5 44.5,0 44.5,0 0,16.5 0,16.5 -25,0 -25,0 0,28 0,28 18.5,0 18.5,0 0,17.5 0,17.5 -18.5,0 -18.5,0 0,30 0,30 26,0 26,0 0,16.5 0,16.5 -45.5,0 -45.5,0 0,-108.5 z m -831.07334,73.5225 c -8.33433,-4.406 -16.6752,-18.2829 -20.84813,-34.6856 -2.25308,-8.8563 -5.07853,-30.6193 -5.07853,-39.1173 l 0,-5.2925 5.98477,4.9805 c 3.29163,2.7394 10.60413,8.2411 16.25,12.2261 21.96671,15.5047 29.05625,25.1928 29.17326,39.8663 0.0883,11.0685 -3.40416,18.4269 -10.45241,22.0226 -4.82676,2.4624 -10.37093,2.4624 -15.02896,-10e-5 z m 277.502598,-1.9153 c -23.14515,-10.5123 -32.28171,-85.5318 -15.6373,-128.3965 3.46782,-8.9307 8.92113,-16.7523 13.76894,-19.7484 4.25888,-2.6321 10.762702,-2.8806 15.209482,-0.5811 12.34973,6.3863 22.23431,39.6968 22.2268,74.9031 -0.008,37.1556 -10.31496,68.1558 -24.71506,74.3349 -4.19758,1.8011 -5.94093,1.7189 -10.852862,-0.512 z"
       id="path2830" />
  </g>
</svg>
